<?xml version="1.0" encoding="UTF-8" standalone="no"?>
<!-- Created with Inkscape (http://www.inkscape.org/) -->

<svg
   xmlns:dc="http://purl.org/dc/elements/1.1/"
   xmlns:cc="http://creativecommons.org/ns#"
   xmlns:rdf="http://www.w3.org/1999/02/22-rdf-syntax-ns#"
   xmlns:svg="http://www.w3.org/2000/svg"
   xmlns="http://www.w3.org/2000/svg"
   xmlns:sodipodi="http://sodipodi.sourceforge.net/DTD/sodipodi-0.dtd"
   xmlns:inkscape="http://www.inkscape.org/namespaces/inkscape"
   width="318.00201"
   height="318.00201"
   viewBox="0 0 318.00202 318.00202"
   id="svg4193"
   version="1.1"
   inkscape:version="0.91 r13725"
   sodipodi:docname="logo.svg">
  <defs
     id="defs4195" />
  <sodipodi:namedview
     id="base"
     pagecolor="#ffffff"
     bordercolor="#666666"
     borderopacity="1.0"
     inkscape:pageopacity="0.0"
     inkscape:pageshadow="2"
     inkscape:zoom="0.35"
     inkscape:cx="-203.57143"
     inkscape:cy="520"
     inkscape:document-units="px"
     inkscape:current-layer="layer1"
     showgrid="false"
     units="px"
     inkscape:window-width="1364"
     inkscape:window-height="747"
     inkscape:window-x="0"
     inkscape:window-y="19"
     inkscape:window-maximized="1" />
  <metadata
     id="metadata4198">
    <rdf:RDF>
      <cc:Work
         rdf:about="">
        <dc:format>image/svg+xml</dc:format>
        <dc:type
           rdf:resource="http://purl.org/dc/dcmitype/StillImage" />
        <dc:title />
      </cc:Work>
    </rdf:RDF>
  </metadata>
  <g
     inkscape:label="Calque 1"
     inkscape:groupmode="layer"
     id="layer1"
     transform="translate(0,-734.36016)">
    <path
       inkscape:connector-curvature="0"
       style="color:#000000;clip-rule:nonzero;display:inline;overflow:visible;visibility:visible;opacity:0.98999999;isolation:auto;mix-blend-mode:normal;color-interpolation:sRGB;color-interpolation-filters:linearRGB;solid-color:#000000;solid-opacity:1;fill:#ffffff;fill-opacity:1;fill-rule:evenodd;stroke:none;stroke-width:3;stroke-linecap:butt;stroke-linejoin:miter;stroke-miterlimit:4;stroke-dasharray:none;stroke-dashoffset:0;stroke-opacity:1;marker:none;color-rendering:auto;image-rendering:auto;shape-rendering:auto;text-rendering:auto;enable-background:accumulate"
       d="m 159.0012,738.71059 a 154.65117,154.65117 0 0 0 -88.30078,27.90625 l -39.0254,0 0,39.01172 a 154.65117,154.65117 0 0 0 -27.32421,87.73242 154.65117,154.65117 0 0 0 27.32421,87.48633 l 0,39.25779 38.82813,0 a 154.65117,154.65117 0 0 0 88.49805,27.9063 154.65117,154.65117 0 0 0 88.30078,-27.9063 l 39.02539,0 0,-39.0117 a 154.65117,154.65117 0 0 0 27.32422,-87.73242 154.65117,154.65117 0 0 0 -27.32422,-87.48633 l 0,-39.25781 -38.82813,0 A 154.65117,154.65117 0 0 0 159.0012,738.71059 Z"
       id="rect4188" />
    <circle
       style="color:#000000;clip-rule:nonzero;display:inline;overflow:visible;visibility:visible;opacity:1;isolation:auto;mix-blend-mode:normal;color-interpolation:sRGB;color-interpolation-filters:linearRGB;solid-color:#000000;solid-opacity:1;fill:none;fill-opacity:1;fill-rule:evenodd;stroke:#005800;stroke-width:18;stroke-linecap:butt;stroke-linejoin:miter;stroke-miterlimit:4;stroke-dasharray:none;stroke-dashoffset:0;stroke-opacity:1;marker:none;color-rendering:auto;image-rendering:auto;shape-rendering:auto;text-rendering:auto;enable-background:accumulate"
       id="path4147"
       cx="159.00095"
       cy="893.36096"
       r="150" />
    <rect
       style="color:#000000;clip-rule:nonzero;display:inline;overflow:visible;visibility:visible;opacity:1;isolation:auto;mix-blend-mode:normal;color-interpolation:sRGB;color-interpolation-filters:linearRGB;solid-color:#000000;solid-opacity:1;fill:none;fill-opacity:1;fill-rule:evenodd;stroke:#61260f;stroke-width:18;stroke-linecap:butt;stroke-linejoin:miter;stroke-miterlimit:4;stroke-dasharray:none;stroke-dashoffset:0;stroke-opacity:1;marker:none;color-rendering:auto;image-rendering:auto;shape-rendering:auto;text-rendering:auto;enable-background:accumulate"
       id="rect4149"
       width="250.28185"
       height="250.28185"
       x="33.860023"
       y="768.22003" />
    <path
       style="color:#000000;font-style:normal;font-variant:normal;font-weight:normal;font-stretch:normal;font-size:medium;line-height:normal;font-family:sans-serif;text-indent:0;text-align:start;text-decoration:none;text-decoration-line:none;text-decoration-style:solid;text-decoration-color:#000000;letter-spacing:normal;word-spacing:normal;text-transform:none;direction:ltr;block-progression:tb;writing-mode:lr-tb;baseline-shift:baseline;text-anchor:start;white-space:normal;clip-rule:nonzero;display:inline;overflow:visible;visibility:visible;opacity:1;isolation:auto;mix-blend-mode:normal;color-interpolation:sRGB;color-interpolation-filters:linearRGB;solid-color:#000000;solid-opacity:1;fill:#005800;fill-opacity:1;fill-rule:evenodd;stroke:none;stroke-width:18;stroke-linecap:butt;stroke-linejoin:miter;stroke-miterlimit:4;stroke-dasharray:none;stroke-dashoffset:0;stroke-opacity:1;marker:none;color-rendering:auto;image-rendering:auto;shape-rendering:auto;text-rendering:auto;enable-background:accumulate"
       d="m 172.88407,734.952 c -46.47904,-4.03631 -92.77324,12.7131 -125.90976,45.55458 l 17.46088,8.18288 c 27.328087,-24.70687 63.4565,-37.7797 100.26683,-36.27834 l 8.18205,-17.45912 z m 98.97153,46.38209 -8.18206,17.45912 c 24.70686,27.3281 37.77713,63.45744 36.27575,100.26776 l 17.46089,8.18288 c 4.03631,-46.47903 -12.7131,-92.77324 -45.55458,-125.90976 z M 0.59222,879.47811 c -4.03631,46.47904 12.71309,92.77322 45.55458,125.90979 l 8.18288,-17.46091 C 29.62289,960.59891 16.55177,924.47124 18.0531,887.66099 L 0.59222,879.47811 Z M 253.5672,998.03249 c -27.32806,24.70681 -63.45574,37.77791 -100.26599,36.27661 l -8.18288,17.4609 c 46.47903,4.0363 92.77323,-12.7131 125.90976,-45.5546 l -17.46089,-8.18291 z"
       id="circle4151"
       inkscape:connector-curvature="0" />
    <g
       transform="translate(0,734.35978)"
       style="color:#000000;font-style:normal;font-variant:normal;font-weight:bold;font-stretch:normal;font-size:262.33596802px;line-height:125%;font-family:AUdimat;-inkscape-font-specification:'AUdimat, Bold';text-align:center;letter-spacing:0px;word-spacing:0px;writing-mode:lr-tb;text-anchor:middle;clip-rule:nonzero;display:inline;overflow:visible;visibility:visible;opacity:0.98999999;isolation:auto;mix-blend-mode:normal;color-interpolation:sRGB;color-interpolation-filters:linearRGB;solid-color:#000000;solid-opacity:1;fill:#005800;fill-opacity:1;fill-rule:evenodd;stroke:none;stroke-width:3;stroke-linecap:butt;stroke-linejoin:miter;stroke-miterlimit:4;stroke-dasharray:none;stroke-dashoffset:0;stroke-opacity:1;marker:none;color-rendering:auto;image-rendering:auto;shape-rendering:auto;text-rendering:auto;enable-background:accumulate"
       id="flowRoot4166">
      <path
         d="m 170.01868,209.50061 c 9.70643,3.14803 16.52717,12.06745 16.52717,22.56089 0,12.85446 -11.01811,23.3479 -35.6777,23.3479 l -11.01811,0 0,-16.52717 11.01811,0 c 6.03373,0 11.01812,-4.98438 11.01812,-11.01811 0,-6.03372 -4.98439,-11.01811 -11.01812,-11.01811 l -2.88569,0 0,-16.7895 c -10.49344,-1.31168 -37.25171,-7.60774 -37.25171,-41.18675 l 0,-55.09055 c 0,0 0,-41.186746 41.44908,-41.186746 l 13.64147,0 c 0,0 41.44909,0 41.44909,41.186746 l -27.54528,0 c 0,0 0,-13.641469 -13.90381,-13.641469 l -13.64147,0 c 0,0 -13.9038,0 -13.9038,13.641469 l 0,55.09055 c 0,0 0,13.90381 13.9038,13.90381 l 13.64147,0 c 0,0 13.90381,0 13.90381,-13.90381 l 27.54528,0 c 0,0 0,38.56339 -37.25171,41.44909 l 0,9.18176 z"
         style=""
         id="path4227" />
    </g>
  </g>
</svg>
