<?xml version="1.0" encoding="UTF-8" standalone="no"?>
<svg
   xmlns:dc="http://purl.org/dc/elements/1.1/"
   xmlns:cc="http://creativecommons.org/ns#"
   xmlns:rdf="http://www.w3.org/1999/02/22-rdf-syntax-ns#"
   xmlns:svg="http://www.w3.org/2000/svg"
   xmlns="http://www.w3.org/2000/svg"
   xmlns:sodipodi="http://sodipodi.sourceforge.net/DTD/sodipodi-0.dtd"
   xmlns:inkscape="http://www.inkscape.org/namespaces/inkscape"
   width="200"
   height="162.535"
   id="svg2"
   version="1.1"
   inkscape:version="0.91 r13725"
   sodipodi:docname="twitter.svg">
  <metadata
     id="metadata10">
    <rdf:RDF>
      <cc:Work
         rdf:about="">
        <dc:format>image/svg+xml</dc:format>
        <dc:type
           rdf:resource="http://purl.org/dc/dcmitype/StillImage" />
        <dc:title></dc:title>
      </cc:Work>
    </rdf:RDF>
  </metadata>
  <defs
     id="defs8" />
  <sodipodi:namedview
     pagecolor="#ffffff"
     bordercolor="#666666"
     borderopacity="1"
     objecttolerance="10"
     gridtolerance="10"
     guidetolerance="10"
     inkscape:pageopacity="0"
     inkscape:pageshadow="2"
     inkscape:window-width="1364"
     inkscape:window-height="747"
     id="namedview6"
     showgrid="false"
     inkscape:zoom="3.1466667"
     inkscape:cx="100.63635"
     inkscape:cy="81.692439"
     inkscape:window-x="1366"
     inkscape:window-y="19"
     inkscape:window-maximized="1"
     inkscape:current-layer="svg2" />
  <path
     d="m 200,19.240004 c -7.358,3.264 -15.267,5.469 -23.566,6.461 8.471,-5.078 14.978,-13.119 18.041,-22.7010003 -7.929,4.703 -16.71,8.1170003 -26.057,9.9570003 C 160.934,4.9820037 150.27,3.6621094e-6 138.468,3.6621094e-6 115.808,3.6621094e-6 97.435,18.371004 97.435,41.031004 c 0,3.216 0.363,6.348 1.062,9.351 -34.102,-1.711 -64.336,-18.047 -84.574,-42.8720003 -3.532,6.0600003 -5.556,13.1080003 -5.556,20.6280003 0,14.236 7.244,26.795 18.254,34.153 -6.726,-0.213 -13.053,-2.059 -18.585,-5.132 -0.004,0.171 -0.004,0.343 -0.004,0.516 0,19.88 14.144,36.464 32.915,40.234 -3.443,0.938 -7.068,1.439 -10.81,1.439 -2.644,0 -5.214,-0.258 -7.72,-0.736 C 27.639,114.913 42.792,126.777 60.748,127.107 c -14.043,11.006 -31.735,17.565 -50.96,17.565 -3.312,0 -6.578,-0.194 -9.788,-0.574 18.159,11.643 39.727,18.437 62.899,18.437 75.473,0 116.746,-62.524 116.746,-116.746996 0,-1.779 -0.04,-3.548 -0.119,-5.309 8.017,-5.784 14.973,-13.011 20.474,-21.239 z"
     style="fill:#005800;fill-opacity:1"
     id="path4"
     inkscape:connector-curvature="0" />
</svg>
